<mxfile host="app.diagrams.net" modified="2021-04-09T04:57:28.796Z" agent="5.0 (Windows NT 10.0; Win64; x64) AppleWebKit/537.36 (KHTML, like Gecko) Chrome/89.0.4389.114 Safari/537.36" etag="tJyhne1dgJM1iXpiyh-x" version="14.5.8" type="github">
  <diagram id="o9FhHZpnxpgGOlD9jWX4" name="第 1 页">
    <mxGraphModel dx="1278" dy="492" grid="1" gridSize="10" guides="1" tooltips="1" connect="1" arrows="1" fold="1" page="1" pageScale="1" pageWidth="827" pageHeight="1169" math="0" shadow="0">
      <root>
        <mxCell id="0" />
        <mxCell id="1" parent="0" />
        <mxCell id="B3TuHMpWbIBbigw8gkTb-1" value="用户" style="shape=umlActor;verticalLabelPosition=bottom;verticalAlign=top;html=1;" vertex="1" parent="1">
          <mxGeometry x="100" y="345" width="50" height="80" as="geometry" />
        </mxCell>
        <mxCell id="B3TuHMpWbIBbigw8gkTb-8" style="rounded=0;orthogonalLoop=1;jettySize=auto;html=1;entryX=0;entryY=0.5;entryDx=0;entryDy=0;exitX=1;exitY=0.5;exitDx=0;exitDy=0;" edge="1" parent="1" source="B3TuHMpWbIBbigw8gkTb-2" target="B3TuHMpWbIBbigw8gkTb-4">
          <mxGeometry relative="1" as="geometry">
            <mxPoint x="340" y="370" as="sourcePoint" />
          </mxGeometry>
        </mxCell>
        <mxCell id="B3TuHMpWbIBbigw8gkTb-9" style="edgeStyle=none;rounded=0;orthogonalLoop=1;jettySize=auto;html=1;entryX=0.022;entryY=0.637;entryDx=0;entryDy=0;entryPerimeter=0;exitX=1;exitY=0.5;exitDx=0;exitDy=0;" edge="1" parent="1" source="B3TuHMpWbIBbigw8gkTb-2" target="B3TuHMpWbIBbigw8gkTb-5">
          <mxGeometry relative="1" as="geometry" />
        </mxCell>
        <mxCell id="B3TuHMpWbIBbigw8gkTb-10" style="edgeStyle=none;rounded=0;orthogonalLoop=1;jettySize=auto;html=1;" edge="1" parent="1" source="B3TuHMpWbIBbigw8gkTb-2" target="B3TuHMpWbIBbigw8gkTb-7">
          <mxGeometry relative="1" as="geometry" />
        </mxCell>
        <mxCell id="B3TuHMpWbIBbigw8gkTb-11" style="edgeStyle=none;rounded=0;orthogonalLoop=1;jettySize=auto;html=1;entryX=0;entryY=0.5;entryDx=0;entryDy=0;exitX=1.015;exitY=0.693;exitDx=0;exitDy=0;exitPerimeter=0;" edge="1" parent="1" source="B3TuHMpWbIBbigw8gkTb-2" target="B3TuHMpWbIBbigw8gkTb-6">
          <mxGeometry relative="1" as="geometry" />
        </mxCell>
        <mxCell id="B3TuHMpWbIBbigw8gkTb-2" value="我的打卡计划管理" style="ellipse;whiteSpace=wrap;html=1;" vertex="1" parent="1">
          <mxGeometry x="240" y="355" width="110" height="60" as="geometry" />
        </mxCell>
        <mxCell id="B3TuHMpWbIBbigw8gkTb-3" style="rounded=0;orthogonalLoop=1;jettySize=auto;html=1;entryX=0;entryY=0.5;entryDx=0;entryDy=0;" edge="1" parent="1" source="B3TuHMpWbIBbigw8gkTb-1" target="B3TuHMpWbIBbigw8gkTb-2">
          <mxGeometry x="94" y="95" as="geometry" />
        </mxCell>
        <mxCell id="B3TuHMpWbIBbigw8gkTb-4" value="邀请好友&lt;br&gt;加入打卡计划" style="ellipse;whiteSpace=wrap;html=1;" vertex="1" parent="1">
          <mxGeometry x="440" y="210" width="110" height="60" as="geometry" />
        </mxCell>
        <mxCell id="B3TuHMpWbIBbigw8gkTb-5" value="创建打卡计划" style="ellipse;whiteSpace=wrap;html=1;" vertex="1" parent="1">
          <mxGeometry x="450" y="295" width="110" height="60" as="geometry" />
        </mxCell>
        <mxCell id="B3TuHMpWbIBbigw8gkTb-6" value="查找我的打卡计划" style="ellipse;whiteSpace=wrap;html=1;" vertex="1" parent="1">
          <mxGeometry x="440" y="450" width="110" height="60" as="geometry" />
        </mxCell>
        <mxCell id="B3TuHMpWbIBbigw8gkTb-7" value="取消打卡计划" style="ellipse;whiteSpace=wrap;html=1;" vertex="1" parent="1">
          <mxGeometry x="450" y="370" width="110" height="60" as="geometry" />
        </mxCell>
        <mxCell id="B3TuHMpWbIBbigw8gkTb-12" value="&lt;font style=&quot;font-size: 24px&quot;&gt;我的打卡计划管理&lt;/font&gt;" style="text;html=1;strokeColor=none;fillColor=none;align=center;verticalAlign=middle;whiteSpace=wrap;rounded=0;" vertex="1" parent="1">
          <mxGeometry x="210" y="140" width="250" height="30" as="geometry" />
        </mxCell>
      </root>
    </mxGraphModel>
  </diagram>
</mxfile>
